<?xml version="1.0" encoding="UTF-8" standalone="no"?>
<!DOCTYPE svg PUBLIC "-//W3C//DTD SVG 1.1//EN" "http://www.w3.org/Graphics/SVG/1.1/DTD/svg11.dtd">
<svg width="100%" height="100%" viewBox="0 0 198 198" version="1.1" xmlns="http://www.w3.org/2000/svg" xmlns:xlink="http://www.w3.org/1999/xlink" xml:space="preserve" xmlns:serif="http://www.serif.com/" style="fill-rule:evenodd;clip-rule:evenodd;stroke-linejoin:round;stroke-miterlimit:2;">
    <g transform="matrix(1,0,0,1,-1480.15,-3680.75)">
        <g transform="matrix(1,0,0,1,783.577,359.786)">
            <path d="M894.42,3360.3C894.42,3338.59 876.794,3320.96 855.085,3320.96L735.908,3320.96C714.198,3320.96 696.572,3338.59 696.572,3360.3L696.572,3479.47C696.572,3501.18 714.198,3518.81 735.908,3518.81L855.085,3518.81C876.794,3518.81 894.42,3501.18 894.42,3479.47L894.42,3360.3Z" style="fill:url(#_Radial1);"/>
        </g>
        <g transform="matrix(0.988212,-0.153089,0.153089,0.988212,-510.062,645.791)">
            <path d="M1523.98,3387.32L1523.98,3384.95L1645.51,3384.95L1645.51,3387.32C1641.85,3387.32 1638.87,3390.29 1638.87,3393.96C1638.87,3397.62 1641.85,3400.6 1645.51,3400.6L1645.51,3403.49C1641.85,3403.49 1638.87,3406.46 1638.87,3410.12C1638.87,3413.79 1641.85,3416.76 1645.51,3416.76L1645.51,3419.65C1641.85,3419.65 1638.87,3422.63 1638.87,3426.29C1638.87,3429.95 1641.85,3432.93 1645.51,3432.93L1645.51,3435.82C1641.85,3435.82 1638.87,3438.8 1638.87,3442.46C1638.87,3445.21 1640.55,3447.57 1642.93,3448.58L1526.56,3448.58C1528.95,3447.57 1530.62,3445.21 1530.62,3442.46C1530.62,3438.8 1527.65,3435.82 1523.98,3435.82L1523.98,3432.93C1527.65,3432.93 1530.62,3429.95 1530.62,3426.29C1530.62,3422.63 1527.65,3419.65 1523.98,3419.65L1523.98,3416.76C1527.65,3416.76 1530.62,3413.79 1530.62,3410.12C1530.62,3406.46 1527.65,3403.49 1523.98,3403.49L1523.98,3400.6C1527.65,3400.6 1530.62,3397.62 1530.62,3393.96C1530.62,3390.29 1527.65,3387.32 1523.98,3387.32ZM1549.06,3393.84L1540.74,3393.84L1540.74,3440.45L1549.06,3440.45L1549.06,3393.84ZM1629.61,3393.84L1621.29,3393.84L1621.29,3440.45L1629.61,3440.45L1629.61,3393.84ZM1584.75,3397.47L1589.95,3410.89L1604.32,3411.7L1593.17,3420.8L1596.85,3434.71L1584.75,3426.91L1572.65,3434.71L1576.32,3420.8L1565.17,3411.7L1579.54,3410.89L1584.75,3397.47Z" style="fill:white;"/>
        </g>
    </g>
    <defs>
        <radialGradient id="_Radial1" cx="0" cy="0" r="1" gradientUnits="userSpaceOnUse" gradientTransform="matrix(-55.036,-166.555,166.555,-55.036,812.681,3518.81)"><stop offset="0" style="stop-color:rgb(70,108,97);stop-opacity:1"/><stop offset="1" style="stop-color:rgb(129,219,147);stop-opacity:1"/></radialGradient>
    </defs>
</svg>
