<?xml version="1.0" encoding="UTF-8" standalone="no"?>
<!DOCTYPE svg PUBLIC "-//W3C//DTD SVG 1.1//EN" "http://www.w3.org/Graphics/SVG/1.1/DTD/svg11.dtd">
<svg width="100%" height="100%" viewBox="0 0 198 198" version="1.1" xmlns="http://www.w3.org/2000/svg" xmlns:xlink="http://www.w3.org/1999/xlink" xml:space="preserve" xmlns:serif="http://www.serif.com/" style="fill-rule:evenodd;clip-rule:evenodd;stroke-linejoin:round;stroke-miterlimit:2;">
    <g transform="matrix(1,0,0,1,-960,-3320.96)">
        <g transform="matrix(1,0,0,1,0,2491.89)">
            <g transform="matrix(1,0,0,1,263.428,-2491.89)">
                <path d="M894.42,3360.3C894.42,3338.59 876.794,3320.96 855.085,3320.96L735.908,3320.96C714.198,3320.96 696.572,3338.59 696.572,3360.3L696.572,3479.47C696.572,3501.18 714.198,3518.81 735.908,3518.81L855.085,3518.81C876.794,3518.81 894.42,3501.18 894.42,3479.47L894.42,3360.3Z" style="fill:url(#_Linear1);"/>
            </g>
        </g>
        <g transform="matrix(1,0,0,1,0,2491.89)">
            <g transform="matrix(0.809217,0,0,0.809217,381.73,-2107.34)">
                <g transform="matrix(1.49057,0,0,1.38129,-404.151,-1293.47)">
                    <path d="M840.829,3646.76C840.923,3645.4 840.664,3644.22 840.051,3643.23C839.438,3642.24 838.495,3641.53 837.222,3641.11L834.888,3654.47C837.812,3655.23 840.169,3655.96 841.96,3656.66C843.752,3657.37 845.296,3658.48 846.592,3659.99C847.889,3661.5 848.537,3663.48 848.537,3665.93C848.537,3666.87 848.443,3667.79 848.254,3668.69C847.83,3671.14 846.804,3673.44 845.178,3675.58C843.551,3677.73 841.418,3679.49 838.778,3680.89C836.138,3682.28 833.144,3683.09 829.797,3683.33L828.807,3689.05L824.21,3689.05L825.2,3683.26C821.051,3682.93 817.751,3681.75 815.3,3679.72C812.848,3677.69 811.622,3674.96 811.622,3671.52C811.622,3670.76 811.693,3669.96 811.834,3669.11L822.442,3669.11C822.301,3670.76 822.584,3672.13 823.291,3673.21C823.998,3674.3 825.106,3675.01 826.615,3675.34L829.019,3661.76C826.096,3661 823.739,3660.26 821.947,3659.53C820.156,3658.8 818.612,3657.69 817.315,3656.21C816.019,3654.72 815.37,3652.73 815.37,3650.23C815.37,3649.24 815.465,3648.3 815.653,3647.4C816.36,3643.3 818.423,3639.95 821.841,3637.36C825.259,3634.77 829.373,3633.28 834.181,3632.9L835.171,3627.18L839.697,3627.18L838.707,3632.9C842.762,3633.28 845.92,3634.49 848.183,3636.55C850.446,3638.6 851.578,3641.41 851.578,3645C851.578,3645.75 851.554,3646.34 851.507,3646.76L840.829,3646.76ZM826.049,3646.91C826.002,3647.14 825.978,3647.49 825.978,3647.97C825.978,3649.19 826.379,3650.22 827.18,3651.04C827.982,3651.87 829.113,3652.56 830.575,3653.13L832.767,3640.82C830.975,3641.06 829.49,3641.7 828.312,3642.73C827.133,3643.77 826.379,3645.16 826.049,3646.91ZM837.929,3669.11C837.977,3668.88 838,3668.52 838,3668.05C838,3666.87 837.599,3665.88 836.798,3665.08C835.996,3664.28 834.865,3663.6 833.403,3663.03L831.211,3675.34C833.05,3675.01 834.558,3674.29 835.737,3673.18C836.916,3672.07 837.646,3670.71 837.929,3669.11Z" style="fill:white;fill-rule:nonzero;"/>
                </g>
                <path d="M901.42,3735.74L836.851,3666.87L772.282,3735.74L772.282,3827.63L901.42,3827.63L901.42,3735.74ZM836.851,3688.06L887.42,3741.03C887.42,3741.03 887.42,3813.63 887.42,3813.63C887.42,3813.63 786.282,3813.63 786.282,3813.63C786.282,3813.63 786.282,3741.03 786.282,3741.03L836.851,3688.06Z" style="fill:white;"/>
            </g>
        </g>
    </g>
    <defs>
        <linearGradient id="_Linear1" x1="0" y1="0" x2="1" y2="0" gradientUnits="userSpaceOnUse" gradientTransform="matrix(1.21147e-14,-197.848,197.848,1.21147e-14,812.681,3518.81)"><stop offset="0" style="stop-color:rgb(207,139,69);stop-opacity:1"/><stop offset="1" style="stop-color:rgb(253,247,152);stop-opacity:1"/></linearGradient>
    </defs>
</svg>
